<?xml version="1.0" encoding="UTF-8"?>
<svg width="27px" height="27px" viewBox="0 0 27 27" version="1.1" xmlns="http://www.w3.org/2000/svg" xmlns:xlink="http://www.w3.org/1999/xlink">
    <!-- Generator: Sketch 63.1 (92452) - https://sketch.com -->
    <title>clock</title>
    <desc>Created with Sketch.</desc>
    <g id="1920" stroke="none" stroke-width="1" fill="none" fill-rule="evenodd">
        <g id="Home-1920" transform="translate(-466.000000, -3461.000000)" fill="#62D0B1">
            <g id="How-it-works" transform="translate(0.000000, 3091.000000)">
                <g id="About-us" transform="translate(319.000000, 117.000000)">
                    <g id="Group-8">
                        <g id="Design" transform="translate(56.000000, 233.000000)">
                            <g id="Star" transform="translate(71.000000, 0.000000)">
                                <g id="clock" transform="translate(20.000000, 20.000000)">
                                    <g id="2088617">
                                        <path d="M13.4785338,0 C6.04660135,0 0,6.04660135 0,13.4785338 C0,20.9104662 6.04660135,26.9570676 13.4785338,26.9570676 C20.9104662,26.9570676 26.9570676,20.9104662 26.9570676,13.4785338 C26.9570676,6.04660135 20.9104662,0 13.4785338,0 Z M13.4785338,25.2722432 C6.97536486,25.2722432 1.68482432,19.9817027 1.68482432,13.4785338 C1.68482432,6.97536486 6.97536486,1.68482432 13.4785338,1.68482432 C19.9817027,1.68482432 25.2722432,6.97536486 25.2722432,13.4785338 C25.2722432,19.9817027 19.9817027,25.2722432 13.4785338,25.2722432 Z" id="Shape" fill-rule="nonzero"></path>
                                        <polygon id="Path" fill-rule="nonzero" points="14.3209459 5.05447297 12.6361216 5.05447297 12.6361216 13.8273446 17.9373649 19.1285878 19.1285878 17.9373649 14.3209459 13.129723"></polygon>
                                    </g>
                                </g>
                            </g>
                        </g>
                    </g>
                </g>
            </g>
        </g>
    </g>
</svg>