<?xml version="1.0" encoding="UTF-8"?>
<svg width="32px" height="32px" viewBox="0 0 32 32" version="1.1" xmlns="http://www.w3.org/2000/svg" xmlns:xlink="http://www.w3.org/1999/xlink">
    <!-- Generator: Sketch 63.1 (92452) - https://sketch.com -->
    <title>mail</title>
    <desc>Created with Sketch.</desc>
    <g id="1920" stroke="none" stroke-width="1" fill="none" fill-rule="evenodd">
        <g id="How-it-works-1920" transform="translate(-1090.000000, -6551.000000)" fill="#10BE62">
            <g id="Group-5" transform="translate(1089.000000, 6490.000000)">
                <g id="Group-4" transform="translate(1.000000, 61.000000)">
                    <g id="mail">
                        <g id="181535">
                            <path d="M15.9995733,0 C7.16341333,0 0.000106666667,7.16352 0.000106666667,15.99968 C0.000106666667,24.8356267 7.16341333,31.99968 15.9995733,31.99968 C24.8357333,31.99968 31.9995733,24.8356267 31.9995733,15.99968 C31.9995733,7.16352 24.8357333,0 15.9995733,0 Z M15.9998933,5.61984 L25.4679467,11.52384 L6.53184,11.52384 L15.9998933,5.61984 Z M25.58592,20.9517867 L25.58496,20.9517867 C25.58496,21.8987733 24.8174933,22.6661333 23.8706133,22.6661333 L8.12917333,22.6661333 C7.18218667,22.6661333 6.41482667,21.8986667 6.41482667,20.9517867 L6.41482667,11.89952 C6.41482667,11.79936 6.42506667,11.7019733 6.44170667,11.6062933 L15.4878933,17.2471467 C15.4989867,17.25408 15.5108267,17.2587733 15.52224,17.2651733 C15.5341867,17.2717867 15.5463467,17.2781867 15.5585067,17.2842667 C15.6224,17.3172267 15.6882133,17.3437867 15.75552,17.3611733 C15.7624533,17.3630933 15.7693867,17.3639467 15.77632,17.3655467 C15.8501333,17.3829333 15.9249067,17.3938133 15.9995733,17.3938133 L16.0001067,17.3938133 C16.00064,17.3938133 16.0011733,17.3938133 16.0011733,17.3938133 C16.07584,17.3938133 16.1506133,17.3832533 16.2244267,17.3655467 C16.23136,17.36384 16.2382933,17.3630933 16.2452267,17.3611733 C16.3124267,17.3437867 16.3780267,17.3172267 16.44224,17.2842667 C16.4544,17.2781867 16.46656,17.2717867 16.4785067,17.2651733 C16.4898133,17.2587733 16.50176,17.25408 16.5128533,17.2471467 L25.55904,11.6062933 C25.57568,11.7019733 25.58592,11.7991467 25.58592,11.89952 L25.58592,20.9517867 Z" id="Shape" fill-rule="nonzero"></path>
                        </g>
                    </g>
                </g>
            </g>
        </g>
    </g>
</svg>