<?xml version="1.0" encoding="UTF-8"?>
<svg width="32px" height="32px" viewBox="0 0 32 32" version="1.1" xmlns="http://www.w3.org/2000/svg" xmlns:xlink="http://www.w3.org/1999/xlink">
    <!-- Generator: Sketch 63.1 (92452) - https://sketch.com -->
    <title>phone</title>
    <desc>Created with Sketch.</desc>
    <g id="1920" stroke="none" stroke-width="1" fill="none" fill-rule="evenodd">
        <g id="How-it-works-1920" transform="translate(-1090.000000, -6601.000000)" fill="#10BE62">
            <g id="Group-5" transform="translate(1089.000000, 6490.000000)">
                <g id="Group-4" transform="translate(1.000000, 111.000000)">
                    <g id="phone">
                        <g id="455705">
                            <path d="M27.312,4.6754308 C21.0626875,-1.55982846 10.932,-1.55833138 4.6845625,4.6788616 C-1.562875,10.9160546 -1.561375,21.0269318 4.688,27.262191 C10.937375,33.4974503 21.068,33.4959532 27.3154375,27.2587602 C30.3158125,24.2632982 32.0009375,20.2009201 32.0000004,15.9653801 C31.999125,11.7305263 30.3128125,7.66945809 27.312,4.6754308 Z M24.2314375,22.2443665 C24.23075,22.2450526 24.2300625,22.2458012 24.2293125,22.2464873 L24.2293125,22.2411852 L23.418625,23.0449279 C22.3701875,24.1045458 20.84325,24.5405068 19.3919375,24.1946823 C17.92975,23.8040702 16.53975,23.1822846 15.274625,22.3529669 C14.09925,21.6032437 13.01,20.7268304 12.026625,19.739384 C11.1218125,18.8429474 10.3089375,17.8586199 9.5999375,16.8011228 C8.8244375,15.6632203 8.210625,14.4236413 7.7759375,13.1176296 C7.277625,11.5833762 7.6905625,9.89985185 8.842625,8.76881092 L9.7919375,7.82134893 C10.055875,7.55674074 10.48475,7.55580507 10.7498125,7.81922807 C10.7505,7.81991423 10.75125,7.82060039 10.7519375,7.82134893 L13.74925,10.8128187 C14.014375,11.0762417 14.0153125,11.5042807 13.751375,11.7688265 C13.7506875,11.7695127 13.75,11.7701988 13.74925,11.7709474 L11.98925,13.5275166 C11.48425,14.0260429 11.42075,14.8182456 11.8399375,15.3905653 C12.4765,16.2624873 13.1809375,17.0829474 13.946625,17.84446 C14.8003125,18.7001637 15.728375,19.4785809 16.7199375,20.1706043 C17.292875,20.5694503 18.069625,20.5022066 18.56525,20.0109162 L20.2665625,18.2862846 C20.5305,18.0216764 20.959375,18.0207407 21.2244375,18.2841637 C21.225125,18.2848499 21.2258125,18.2855361 21.2265625,18.2862846 L24.22925,21.2884211 C24.4944375,21.5517817 24.495375,21.9797583 24.2314375,22.2443665 Z" id="Shape" fill-rule="nonzero"></path>
                        </g>
                    </g>
                </g>
            </g>
        </g>
    </g>
</svg>