<?xml version="1.0" encoding="UTF-8"?>
<svg width="34px" height="34px" viewBox="0 0 34 34" version="1.1" xmlns="http://www.w3.org/2000/svg" xmlns:xlink="http://www.w3.org/1999/xlink">
    <!-- Generator: Sketch 63.1 (92452) - https://sketch.com -->
    <title>Instagram</title>
    <desc>Created with Sketch.</desc>
    <g id="1920" stroke="none" stroke-width="1" fill="none" fill-rule="evenodd">
        <g id="How-it-works-1920" transform="translate(-1194.000000, -6758.000000)" fill="#10BE62" fill-rule="nonzero">
            <g id="Group-6" transform="translate(1089.000000, 6697.000000)">
                <g id="Social-Media" transform="translate(1.000000, 60.721198)">
                    <g id="Instagram" transform="translate(104.000000, 0.278802)">
                        <path d="M22.0074444,9.02133333 L11.9011333,9.02133333 C10.2880222,9.02133333 8.97562222,10.3337333 8.97562222,11.9468444 L8.97562222,22.0531556 C8.97562222,23.6662667 10.2880222,24.9790444 11.9011333,24.9790444 L22.0074444,24.9790444 C23.6205556,24.9790444 24.9333333,23.6666444 24.9333333,22.0531556 L24.9333333,11.9468444 C24.9333333,10.3337333 23.6209333,9.02133333 22.0074444,9.02133333 Z M16.9542889,22.2533778 C14.0578667,22.2533778 11.7012889,19.8968 11.7012889,17 C11.7012889,14.1035778 14.0578667,11.747 16.9542889,11.747 C19.8510889,11.747 22.2076667,14.1035778 22.2076667,17 C22.2076667,19.8964222 19.8507111,22.2533778 16.9542889,22.2533778 Z M22.3765333,12.8331111 C21.6908667,12.8331111 21.1332667,12.2755111 21.1332667,11.5902222 C21.1332667,10.9049333 21.6908667,10.3473333 22.3765333,10.3473333 C23.0618222,10.3473333 23.6194222,10.9049333 23.6194222,11.5902222 C23.6194222,12.2755111 23.0618222,12.8331111 22.3765333,12.8331111 Z" id="Shape"></path>
                        <path d="M16.9542889,13.9668222 C15.2822444,13.9668222 13.9207333,15.3275778 13.9207333,16.9996222 C13.9207333,18.6724222 15.2822444,20.0335556 16.9542889,20.0335556 C18.6270889,20.0335556 19.9874667,18.6724222 19.9874667,16.9996222 C19.9874667,15.3279556 18.6267111,13.9668222 16.9542889,13.9668222 Z" id="Shape"></path>
                        <path d="M16.9542889,0 C7.59106667,0 0,7.59106667 0,16.9542889 C0,26.3175111 7.59106667,33.9085778 16.9542889,33.9085778 C26.3175111,33.9085778 33.9085778,26.3175111 33.9085778,16.9542889 C33.9085778,7.59106667 26.3175111,0 16.9542889,0 Z M27.1527778,22.0531556 C27.1527778,24.8906444 24.8449333,27.1984889 22.0074444,27.1984889 L11.9011333,27.1984889 C9.06402222,27.1984889 6.7558,24.8906444 6.7558,22.0531556 L6.7558,11.9468444 C6.7558,9.10973333 9.06402222,6.80151111 11.9011333,6.80151111 L22.0074444,6.80151111 C24.8449333,6.80151111 27.1527778,9.10973333 27.1527778,11.9468444 L27.1527778,22.0531556 Z" id="Shape"></path>
                    </g>
                </g>
            </g>
        </g>
    </g>
</svg>