<?xml version="1.0" encoding="UTF-8"?>
<svg width="34px" height="34px" viewBox="0 0 34 34" version="1.1" xmlns="http://www.w3.org/2000/svg" xmlns:xlink="http://www.w3.org/1999/xlink">
    <!-- Generator: Sketch 63.1 (92452) - https://sketch.com -->
    <title>Pinterest</title>
    <desc>Created with Sketch.</desc>
    <g id="1920" stroke="none" stroke-width="1" fill="none" fill-rule="evenodd">
        <g id="How-it-works-1920" transform="translate(-1142.000000, -6758.000000)" fill-rule="nonzero">
            <g id="Group-6" transform="translate(1089.000000, 6697.000000)">
                <g id="Social-Media" transform="translate(1.000000, 60.721198)">
                    <g id="Pinterest" transform="translate(52.000000, 0.278802)">
                        <circle id="Oval" fill="#10BE62" cx="16.8793451" cy="16.879646" r="16.8790442"></circle>
                        <path d="M18.2417522,22.6030796 C16.9656991,22.5043894 16.4295221,21.8716283 15.4287788,21.2641416 C14.8787611,24.1499292 14.2065841,26.9162655 12.2156283,28.3614159 C11.6003186,23.9997876 13.1176814,20.7237522 13.822354,17.2464248 C12.6212212,15.2244779 13.9667788,11.154708 16.5002301,12.1575575 C19.6183009,13.3905841 13.8006903,19.6757699 17.706177,20.4607788 C21.783469,21.2803894 23.4479646,13.3860708 20.9193274,10.8183186 C17.2659823,7.11111504 10.2851504,10.7340708 11.1435752,16.0410796 C11.3526903,17.3384956 12.6934336,17.732354 11.6791504,19.5226195 C9.34097345,19.0047965 8.64352212,17.1606726 8.73318584,14.7021416 C8.8779115,10.6778053 12.3492212,7.8600177 15.8310619,7.4700708 C20.2345133,6.97722124 24.367469,9.08702655 24.9379469,13.2290088 C25.5797345,17.9038584 22.95,22.9665487 18.2417522,22.6030796 L18.2417522,22.6030796 Z" id="Shape" fill="#F7F8FB"></path>
                    </g>
                </g>
            </g>
        </g>
    </g>
</svg>