<?xml version="1.0" encoding="UTF-8"?>
<svg width="34px" height="34px" viewBox="0 0 34 34" version="1.1" xmlns="http://www.w3.org/2000/svg" xmlns:xlink="http://www.w3.org/1999/xlink">
    <!-- Generator: Sketch 63.1 (92452) - https://sketch.com -->
    <title>Twitter</title>
    <desc>Created with Sketch.</desc>
    <g id="1920" stroke="none" stroke-width="1" fill="none" fill-rule="evenodd">
        <g id="How-it-works-1920" transform="translate(-1246.000000, -6758.000000)" fill-rule="nonzero">
            <g id="Group-6" transform="translate(1089.000000, 6697.000000)">
                <g id="Social-Media" transform="translate(1.000000, 60.721198)">
                    <g id="Twitter" transform="translate(156.000000, 0.278802)">
                        <circle id="Oval" fill="#10BE62" cx="16.8790442" cy="16.8790442" r="16.8790442"></circle>
                        <path d="M28.1652389,12.0919646 C27.4419115,12.412708 26.663823,12.629646 25.847823,12.726531 C26.6809735,12.2273628 27.320354,11.4375398 27.6221416,10.4948673 C26.8425487,10.9573274 25.978708,11.2928142 25.0601062,11.473646 C24.3241416,10.6898407 23.2755575,10.2 22.1144425,10.2 C19.8866903,10.2 18.0798761,12.0068142 18.0798761,14.2345664 C18.0798761,14.5507965 18.1156814,14.8586018 18.184885,15.1540708 C14.831823,14.9858761 11.8587788,13.3797522 9.86872566,10.9380708 C9.52150442,11.533823 9.32231858,12.2273628 9.32231858,12.9666372 C9.32231858,14.3660531 10.035115,15.6014867 11.1170973,16.3248142 C10.4560531,16.3040531 9.83352212,16.1226195 9.28982301,15.8196283 C9.28952212,15.8367788 9.28952212,15.8539292 9.28952212,15.8707788 C9.28952212,17.8256283 10.6808142,19.4561239 12.5261416,19.8265133 C12.1879469,19.9191858 11.8307965,19.9682301 11.4634159,19.9682301 C11.2028496,19.9682301 10.9504071,19.9432566 10.7042832,19.8963186 C11.2175929,21.4988319 12.7072743,22.6653628 14.4731681,22.6981593 C13.0921062,23.7804425 11.3526903,24.4252389 9.4619292,24.4252389 C9.13697345,24.4252389 8.81502655,24.4062832 8.5,24.3686726 C10.2845487,25.5138407 12.4057876,26.1815044 14.6840885,26.1815044 C22.105115,26.1815044 26.1634513,20.033823 26.1634513,14.7018407 C26.1634513,14.5270265 26.1595398,14.3528142 26.1517168,14.1801062 C26.9406372,13.6114336 27.6245487,12.9010442 28.1652389,12.0919646 L28.1652389,12.0919646 Z" id="Shape" fill="#F7F8FB"></path>
                    </g>
                </g>
            </g>
        </g>
    </g>
</svg>