<?xml version="1.0" encoding="UTF-8"?>
<svg width="34px" height="34px" viewBox="0 0 34 34" version="1.1" xmlns="http://www.w3.org/2000/svg" xmlns:xlink="http://www.w3.org/1999/xlink">
    <!-- Generator: Sketch 63.1 (92452) - https://sketch.com -->
    <title>Vk</title>
    <desc>Created with Sketch.</desc>
    <g id="1920" stroke="none" stroke-width="1" fill="none" fill-rule="evenodd">
        <g id="How-it-works-1920" transform="translate(-1090.000000, -6758.000000)">
            <g id="Group-6" transform="translate(1089.000000, 6697.000000)">
                <g id="Social-Media" transform="translate(1.000000, 60.721198)">
                    <g id="Vk" transform="translate(0.000000, 0.278802)">
                        <circle id="XMLID_11_" fill="#10BE62" fill-rule="nonzero" cx="16.8790442" cy="16.8790442" r="16.8790442"></circle>
                        <path d="M16.241469,24.2820177 L17.5662655,24.2820177 C17.5662655,24.2820177 17.9664425,24.2380885 18.1707434,24.0178407 C18.3587965,23.815646 18.3527788,23.4359292 18.3527788,23.4359292 C18.3527788,23.4359292 18.3269027,21.6583009 19.1519292,21.396531 C19.9652212,21.1386726 21.0095929,23.1145841 22.1165487,23.8743186 C22.9536106,24.4493097 23.5896814,24.3232389 23.5896814,24.3232389 L26.5494867,24.2820177 C26.5494867,24.2820177 28.0978407,24.1866372 27.3636814,22.9692566 C27.3035044,22.8696637 26.9361239,22.068708 25.1630088,20.4228673 C23.3071504,18.7003009 23.5556814,18.9789204 25.7912566,15.9992566 C27.1527611,14.1846195 27.6970619,13.0767611 27.5270619,12.6022655 C27.364885,12.1503363 26.3635398,12.2697876 26.3635398,12.2697876 L23.0309381,12.2905487 C23.0309381,12.2905487 22.7839115,12.2568496 22.6006726,12.3663717 C22.421646,12.4737876 22.3064071,12.7241239 22.3064071,12.7241239 C22.3064071,12.7241239 21.7789558,14.128354 21.0754867,15.3225664 C19.5915221,17.8424779 18.998177,17.975469 18.7556637,17.8190088 C18.1915044,17.4543363 18.3323186,16.354 18.3323186,15.5723009 C18.3323186,13.1303186 18.702708,12.1121239 17.6110973,11.8485487 C17.2488319,11.7609912 16.9822478,11.7032212 16.055823,11.6938938 C14.8667257,11.6815575 13.8602655,11.6975044 13.2903894,11.9767257 C12.9112743,12.1623717 12.6188142,12.5760885 12.7969381,12.5998584 C13.0171858,12.6293451 13.5160531,12.734354 13.780531,13.0945133 C14.1220354,13.5590796 14.11,14.6025487 14.11,14.6025487 C14.11,14.6025487 14.306177,17.4772035 13.6517522,17.834354 C13.202531,18.0792743 12.5863186,17.5792035 11.2633274,15.2930796 C10.5854336,14.1220354 10.0736283,12.8276283 10.0736283,12.8276283 C10.0736283,12.8276283 9.97493805,12.5857168 9.79892035,12.4563363 C9.58529204,12.2995752 9.28681416,12.2496283 9.28681416,12.2496283 L6.12,12.2703894 C6.12,12.2703894 5.64460177,12.2836283 5.4700885,12.4903363 C5.31483186,12.674177 5.45775221,13.0544956 5.45775221,13.0544956 C5.45775221,13.0544956 7.93704425,18.8549558 10.7443009,21.7780531 C13.3183717,24.4580354 16.241469,24.2820177 16.241469,24.2820177 L16.241469,24.2820177 Z" id="Shape" fill="#F7F8FB"></path>
                    </g>
                </g>
            </g>
        </g>
    </g>
</svg>